#!OML:ASF I:\Actors\actors\Patient Classification 2\Patient 1\Session 1\actor1.ASF
:FULLY-SPECIFIED
:DEGREES
344
root -0.498642 18.6747 6.03701 8.00716 -1.00747 -7.45814
lowerback 16.3504 2.69283 -4.68799
upperback 1.40304 2.5563 -1.66557
thorax -7.79792 1.35581 0.284597
lowerneck -6.47982 -0.0335004 0.942477
upperneck 13.3063 -2.80792 19.4697
head 5.37107 -0.0912191 5.84515
rclavicle -5.80451e-014 1.59028e-015
rhumerus -92.9269 20.7672 -104.962
rradius 108.829
rwrist -3.31367
rhand -11.2109 -34.7242
rfingers 7.12502
rthumb 14.8174 -64.1745
lclavicle -5.80451e-014 1.59028e-015
lhumerus -87.0761 -26.6415 111.57
lradius 107.943
lwrist 18.6122
lhand -29.8143 -39.7775
lfingers 7.12502
lthumb -3.13814 -9.82084
rfemur 0.34346 -2.17993 20.8835
rtibia 6.36111e-015
rfoot -12.5885 -11.6519
rtoes -8.91853
lfemur -17.5274 2.60825 -6.68135
ltibia 31.9117
lfoot -21.13 6.95282
ltoes -56.7209
345
root -0.485147 18.6802 6.05296 7.81795 -1.33683 -7.62673
lowerback 16.2689 2.71895 -4.30611
upperback 1.49347 2.68396 -1.47237
thorax -7.65168 1.4059 0.2539
lowerneck -6.28059 -0.452144 0.548797
upperneck 13.4078 -3.29259 19.0506
head 5.40805 -0.375957 5.74281
rclavicle -5.96354e-015 3.33958e-014
rhumerus -92.8518 20.4611 -104.929
rradius 108.851
rwrist -3.15399
rhand -13.2953 -34.7167
rfingers 7.12502
rthumb 12.8086 -64.3038
lclavicle -5.96354e-015 3.33958e-014
lhumerus -87.1072 -26.5853 111.702
lradius 107.674
lwrist 18.7225
lhand -29.5253 -39.9326
lfingers 7.12502
lthumb -2.85898 -9.97202
rfemur 0.566639 -1.8348 20.9783
rtibia 6.36111e-015
rfoot -12.5144 -11.7335
rtoes -9.14571
lfemur -17.0675 2.72049 -6.58438
ltibia 31.7367
lfoot -21.2292 7.21535
ltoes -56.7434
346
root -0.487243 18.692 6.00736 8.12775 -0.302826 -7.30238
lowerback 16.6581 2.25167 -4.01772
upperback 1.26612 2.10793 -1.29735
thorax -8.08603 1.12924 0.391727
lowerneck -5.93008 -0.772638 0.239072
upperneck 13.3774 -3.58301 18.3756
head 5.35108 -0.594048 5.54988
rclavicle 5.56597e-015 9.54166e-015
rhumerus -92.842 20.1026 -105.189
rradius 108.81
rwrist -3.68976
rhand -14.8128 -35.1081
rfingers 7.12502
rthumb 11.3453 -64.7812
lclavicle 5.56597e-015 9.54166e-015
lhumerus -87.233 -26.4808 111.806
lradius 107.191
lwrist 19.0823
lhand -28.9573 -41.1359
lfingers 7.12502
lthumb -2.31051 -11.1687
rfemur 0.16601 -2.90015 20.7708
rtibia -3.18055e-015
rfoot -12.4023 -11.8337
rtoes -9.05308
lfemur -17.8135 1.90351 -6.85646
ltibia 31.529
lfoot -20.7983 7.20803
ltoes -56.6352
347
root -0.478935 18.6979 6.01356 8.04292 -0.356032 -7.165
lowerback 16.657 2.1198 -3.61233
upperback 1.26543 2.02444 -1.12937
thorax -8.07426 1.07826 0.36323
lowerneck -5.55904 -1.04545 0.0241235
upperneck 13.307 -3.79798 17.5932
head 5.26752 -0.779453 5.3117
rclavicle -2.22639e-014 3.65764e-014
rhumerus -92.9138 19.6221 -105.669
rradius 108.763
rwrist -4.56093
rhand -15.4367 -35.4882
rfingers 7.12502
rthumb 10.7435 -65.1935
lclavicle -2.22639e-014 3.65764e-014
lhumerus -87.4131 -26.3912 111.891
lradius 107.434
lwrist 18.7887
lhand -29.4137 -39.3231
lfingers 7.12502
lthumb -2.75129 -9.36107
rfemur 0.263186 -2.87006 20.5779
rtibia 4.77083e-015
rfoot -12.3343 -11.8702
rtoes -9.03047
lfemur -17.5696 1.76663 -7.05243
ltibia 31.3025
lfoot -20.7509 7.37983
ltoes -56.6355
348
root -0.470223 18.7014 6.03922 7.68853 -0.865256 -7.09122
lowerback 16.6139 2.12326 -3.2064
upperback 1.39169 2.12603 -0.930041
thorax -7.90942 1.11439 0.328689
lowerneck -5.27546 -1.26892 0.0839343
upperneck 13.2955 -3.94799 16.5041
head 5.20243 -0.928618 4.9347
rclavicle -1.59028e-015 4.77083e-015
rhumerus -92.9461 19.229 -105.907
rradius 108.688
rwrist -4.5926
rhand -15.4357 -35.7136
rfingers 7.12502
rthumb 10.7445 -65.4188
lclavicle -1.59028e-015 4.77083e-015
lhumerus -87.5653 -26.2391 111.915
lradius 107.422
lwrist 18.6248
lhand -29.4137 -38.5085
lfingers 7.12502
lthumb -2.75125 -8.54653
rfemur 0.684819 -2.38054 20.3907
rtibia -3.18055e-015
rfoot -12.3279 -11.8544
rtoes -8.93807
lfemur -16.7929 2.02147 -7.20389
ltibia 31.0555
lfoot -20.9087 7.47687
ltoes -56.6572
349
root -0.473509 18.7091 6.025 7.78495 -0.429815 -6.72468
lowerback 16.6891 1.793 -2.83696
upperback 1.27912 1.77243 -0.723172
thorax -8.05638 0.937783 0.419902
lowerneck -4.97749 -1.46797 0.309466
upperneck 13.2682 -4.05559 15.2537
head 5.12024 -1.05863 4.48427
rclavicle -5.96354e-015 2.54444e-014
rhumerus -93.2128 19.1176 -106.054
rradius 108.63
rwrist -4.36836
rhand -15.5869 -35.6317
rfingers 7.12502
rthumb 10.5987 -65.3444
lclavicle -5.96354e-015 2.54444e-014
lhumerus -87.7619 -26.0519 111.964
lradius 107.257
lwrist 18.4602
lhand -29.2895 -38.4552
lfingers 7.12502
lthumb -2.63127 -8.49167
rfemur 0.584256 -2.86242 20.0556
rtibia -1.59028e-015
rfoot -12.3268 -11.8551
rtoes -8.56575
lfemur -16.9699 1.62605 -7.55035
ltibia 30.8344
lfoot -20.791 7.40734
ltoes -56.5838
350
root -0.474397 18.7093 6.0334 7.46191 -0.550921 -6.47844
lowerback 16.8759 1.6768 -2.40221
upperback 1.33383 1.71835 -0.450933
thorax -8.09422 0.901369 0.474934
lowerneck -4.69056 -1.63641 0.533278
upperneck 13.1858 -4.11192 13.9908
head 5.01815 -1.16516 4.03788
rclavicle -5.96354e-015 -1.43125e-014
rhumerus -93.7143 19.2251 -106.211
rradius 108.641
rwrist -4.53481
rhand -16.0564 -35.4513
rfingers 7.12502
rthumb 10.1457 -65.1867
lclavicle -5.96354e-015 -1.43125e-014
lhumerus -87.9568 -25.9157 112.138
lradius 106.925
lwrist 18.3918
lhand -29.1412 -38.968
lfingers 7.12502
lthumb -2.48812 -9.00277
rfemur 0.98667 -2.77516 19.784
rtibia -7.95139e-015
rfoot -12.4005 -11.8394
rtoes -8.57079
lfemur -16.4191 1.63555 -7.79856
ltibia 30.6243
lfoot -20.8269 7.28592
ltoes -56.5161
351
root -0.487551 18.7139 5.9955 8.03845 0.318321 -5.93118
lowerback 16.6654 1.20129 -2.02742
upperback 1.13141 1.19334 -0.139961
thorax -8.1802 0.644353 0.721668
lowerneck -4.67462 -1.78157 0.846333
upperneck 13.1176 -4.13738 12.5457
head 4.9606 -1.2504 3.52413
rclavicle -5.1684e-015 1.51076e-014
rhumerus -93.865 19.2857 -106.116
rradius 108.691
rwrist -4.66278
rhand -16.5733 -35.4785
rfingers 7.12502
rthumb 9.64709 -65.2376
lclavicle -5.1684e-015 1.51076e-014
lhumerus -87.9268 -25.8177 112.341
lradius 106.318
lwrist 18.6318
lhand -28.8274 -40.4953
lfingers 7.12502
lthumb -2.18501 -10.5267
rfemur 0.33935 -3.71397 19.3859
rtibia -2.06736e-014
rfoot -12.4501 -11.9066
rtoes -8.61495
lfemur -17.3772 1.09969 -8.27295
ltibia 30.4689
lfoot -20.4151 7.05352
ltoes -56.657
352
root -0.492633 18.7078 5.99589 7.89949 0.293863 -5.6386
lowerback 16.6758 1.03703 -1.49591
upperback 1.23812 1.10678 0.2133
thorax -8.06439 0.589203 0.820564
lowerneck -4.81044 -1.92624 1.20762
upperneck 13.0917 -4.16594 10.9979
head 4.93893 -1.3338 2.97369
rclavicle -1.27222e-014 2.38542e-015
rhumerus -93.7582 19.1524 -105.853
rradius 108.798
rwrist -4.61014
rhand -16.7887 -35.6358
rfingers 7.12502
rthumb 9.43918 -65.4044
lclavicle -1.27222e-014 2.38542e-015
lhumerus -87.8016 -25.7844 112.511
lradius 106.045
lwrist 18.4099
lhand -28.8867 -40.3119
lfingers 7.12502
lthumb -2.2423 -10.3439
rfemur 0.525973 -3.72831 19.0959
rtibia 4.77083e-015
rfoot -12.7575 -11.8709
rtoes -8.38064
lfemur -17.1166 1.10905 -8.54816
ltibia 30.3198
lfoot -20.4305 6.84847
ltoes -56.7735
353
root -0.499114 18.6976 5.99925 7.65622 0.264922 -5.28964
lowerback 16.7924 0.884348 -0.869307
upperback 1.28869 1.04704 0.517314
thorax -8.06709 0.543791 0.804054
lowerneck -4.67029 -2.08623 1.60077
upperneck 12.999 -4.19005 9.39234
head 4.84585 -1.42851 2.40667
rclavicle -1.31198e-014 -6.36111e-015
rhumerus -93.8075 18.8501 -105.633
rradius 108.974
rwrist -4.40346
rhand -16.9212 -35.7663
rfingers 7.12502
rthumb 9.31142 -65.5407
lclavicle -1.31198e-014 -6.36111e-015
lhumerus -87.8951 -25.8361 112.725
lradius 106.184
lwrist 17.6941
lhand -29.3171 -38.3791
lfingers 7.12502
lthumb -2.658 -8.41595
rfemur 0.858671 -3.74296 18.7309
rtibia -4.77083e-015
rfoot -13.2125 -11.7373
rtoes -7.64325
lfemur -16.7722 1.19667 -8.86977
ltibia 30.2331
lfoot -20.4577 6.4935
ltoes -56.7824
354
root -0.507395 18.6862 6.00151 7.47412 0.283902 -4.86582
lowerback 16.8523 0.693022 -0.200637
upperback 1.28451 0.943273 0.788361
thorax -8.09645 0.475446 0.739027
lowerneck -4.39241 -2.21066 2.11508
upperneck 12.893 -4.14277 7.5672
head 4.71532 -1.49748 1.76217
rclavicle -4.17448e-015 -8.74653e-015
rhumerus -93.9346 18.6353 -105.463
rradius 109.197
rwrist -4.16482
rhand -17.1222 -35.8694
rfingers 7.12502
rthumb 9.11744 -65.6523
lclavicle -4.17448e-015 -8.74653e-015
lhumerus -88.0368 -25.8808 112.882
lradius 106.188
lwrist 17.4162
lhand -29.1596 -37.2714
lfingers 7.12502
lthumb -2.50589 -7.30634
rfemur 1.11589 -3.81335 18.3026
rtibia 1.59028e-015
rfoot -13.6276 -11.6333
rtoes -7.39893
lfemur -16.5518 1.26776 -9.27023
ltibia 30.1903
lfoot -20.464 6.08957
ltoes -56.7082
355
root -0.521746 18.673 5.99744 7.36951 0.295564 -4.45407
lowerback 16.8877 0.492489 0.429002
upperback 1.27841 0.825225 1.10994
thorax -8.1171 0.402419 0.754256
lowerneck -4.20715 -2.26422 2.61351
upperneck 12.8199 -3.99422 5.62485
head 4.60707 -1.51827 1.09312
rclavicle 1.19271e-014 -3.37934e-015
rhumerus -94.0026 18.5346 -105.278
rradius 109.424
rwrist -3.8655
rhand -17.393 -36.0123
rfingers 7.12502
rthumb 8.85609 -65.8065
lclavicle 1.19271e-014 -3.37934e-015
lhumerus -88.0311 -25.8929 112.99
lradius 106.061
lwrist 17.8598
lhand -28.3302 -36.9661
lfingers 7.12502
lthumb -1.70485 -6.99314
rfemur 1.25829 -3.87357 17.9276
rtibia 6.36111e-015
rfoot -14.0787 -11.5606
rtoes -7.59443
lfemur -16.4779 1.49492 -9.63251
ltibia 30.217
lfoot -20.3854 5.59185
ltoes -56.7156
356
root -0.536251 18.6621 5.98767 7.56622 0.460752 -4.00374
lowerback 16.6519 0.25753 1.08969
upperback 1.24364 0.664389 1.44224
thorax -8.01911 0.308268 0.77436
lowerneck -4.23453 -2.30062 3.02321
upperneck 12.3666 -3.8141 3.6484
head 4.90808 -1.53817 0.497196
rclavicle -6.58474e-015 7.95139e-016
rhumerus -93.9116 18.4058 -105.057
rradius 109.601
rwrist -3.60022
rhand -17.8556 -36.0962
rfingers 7.12502
rthumb 8.40966 -65.9088
lclavicle -6.58474e-015 7.95139e-016
lhumerus -87.9553 -26.0561 113.243
lradius 105.636
lwrist 18.7673
lhand -27.5351 -37.6941
lfingers 7.12502
lthumb -0.936911 -7.71637
rfemur 1.06582 -4.10306 17.5235
rtibia -9.54166e-015
rfoot -14.539 -11.4472
rtoes -8.15255
lfemur -16.8369 1.53521 -10.0359
ltibia 30.3186
lfoot -20.2653 5.17854
ltoes -56.7043
357
root -0.551893 18.655 5.97504 7.68568 0.625064 -3.54321
lowerback 16.5788 0.0678412 1.70908
upperback 1.25098 0.55558 1.77831
thorax -7.96815 0.240685 0.80875
lowerneck -4.43851 -2.35038 3.40886
upperneck 12.311 -3.69403 1.78466
head 4.87213 -1.55852 -0.203059
rclavicle -3.47873e-015 -1.09332e-014
rhumerus -93.6813 18.317 -104.803
rradius 109.763
rwrist -3.70044
rhand -18.3671 -36.1885
rfingers 7.12502
rthumb 7.91603 -66.0203
lclavicle -3.47873e-015 -1.09332e-014
lhumerus -87.7635 -26.4133 113.402
lradius 105.457
lwrist 18.7682
lhand -27.279 -36.9018
lfingers 7.12502
lthumb -0.689525 -6.92312
rfemur 0.959984 -4.33189 17.1041
rtibia -1.59028e-015
rfoot -14.8447 -11.3124
rtoes -8.80248
lfemur -17.1406 1.62117 -10.4445
ltibia 30.469
lfoot -20.1343 4.73171
ltoes -56.6827
358
root -0.567699 18.6545 5.96161 7.83774 0.7372 -3.13913
lowerback 16.4897 -0.0810008 2.36151
upperback 1.22764 0.505764 2.11551
thorax -7.94234 0.200326 0.812195
lowerneck -4.60309 -2.39197 3.67249
upperneck 12.291 -3.55848 -0.0414172
head 4.85538 -1.57583 -0.867545
rclavicle -4.67144e-015 -1.47101e-014
rhumerus -93.4934 18.1763 -104.583
rradius 109.857
rwrist -3.83131
rhand -18.7764 -36.2662
rfingers 7.12502
rthumb 7.52099 -66.1125
lclavicle -4.67144e-015 -1.47101e-014
lhumerus -87.6473 -26.8103 113.609
lradius 105.247
lwrist 18.7729
lhand -26.8711 -36.0988
lfingers 7.12502
lthumb -0.295627 -6.11925
rfemur 0.792895 -4.50407 16.7523
rtibia -1.90833e-014
rfoot -14.9531 -11.2734
rtoes -8.89798
lfemur -17.4983 1.8549 -10.8093
ltibia 30.6335
lfoot -19.863 4.31698
ltoes -56.7547
